<svg width="59" height="59" viewBox="0 0 59 59" fill="none" xmlns="http://www.w3.org/2000/svg">
<circle cx="29.5" cy="29.5" r="29.5" fill="#E5E5E5"/>
<path fill-rule="evenodd" clip-rule="evenodd" d="M10 38C10 32.2768 14.3709 27.5744 19.9566 27.0488C21.9428 30.0409 25.2525 32 29 32C32.7677 32 36.093 30.0196 38.0755 27.0002C44.1159 27.0408 49 31.95 49 38V39C49 39.3371 48.9848 39.6706 48.9552 40H49V43C49 46.866 45.866 50 42 50H17C13.134 50 10 46.866 10 43V40H10.0448C10.0152 39.6706 10 39.3371 10 39V38Z" fill="#222222"/>
<circle cx="29.5" cy="18.5" r="10.5" fill="#222222"/>
</svg>
